# xmcd CD database file
#
# Track frame offsets:
#	182
#	11160
#	20925
#	31102
#	43125
#	54082
#	64740
#	75220
#	87755
#	98272
#	110830
#	119842
#	132325
#	142402
#
# Disc length: 2051 seconds
#
# Revision: 4
# Processed by: cddbd v1.5.2PL0 Copyright (c) Steve Scherf et al.
# Submitted via: CDex 1.51
#
DISCID=b408010e,bc08010e
DTITLE=Sam Cooke - You Send Me
DYEAR=1987
DGENRE=Soul
TTITLE0=All Of My Life
TTITLE1=Almost In Your Arms
TTITLE2=Bells Of St. Mary's
TTITLE3=Danny Boy
TTITLE4=I Cover The Waterfront
TTITLE5=Solitude
TTITLE6=That Lucky Old Sun
TTITLE7=Win Your Love For Me
TTITLE8=The Little Things You Do
TTITLE9=You Send Me
TTITLE10=Ain't Misbehavin'
TTITLE11=When I Fall In Love
TTITLE12=Stealing Kisses
TTITLE13=God Bless The Child
EXTD=YEAR: 1987
EXTT0=
EXTT1=
EXTT2=
EXTT3=
EXTT4=
EXTT5=
EXTT6=
EXTT7=
EXTT8=
EXTT9=
EXTT10=
EXTT11=
EXTT12=
EXTT13=
PLAYORDER=
